<svg width="40" height="40" viewBox="0 0 40 40" fill="none" xmlns="http://www.w3.org/2000/svg">
    <g transform="matrix(1.25 0 0 1.25 20 20)" id="KBHdbLBspvzWERPehCaVB">
        <g>
            <g transform="matrix(1 0 0 1 0 -2.8960774263)" id="t7hNgPGbDtVIcNB2DcJ_v">
                <path transform=" translate(-8, -5.1039225737)"
                      d="M 8.707 1.5 C 8.316500148514187 1.1096180616671376 7.683499851485815 1.1096180616671374 7.293000000000001 1.5 L 0.646 8.146 C 0.4504911985598991 8.341508801440101 0.45049119855989905 8.6584911985599 0.646 8.854000000000001 C 0.841508801440101 9.049508801440101 1.1584911985598993 9.049508801440101 1.354 8.854000000000001 L 8 2.207 L 14.646 8.854 C 14.841508801440101 9.0495088014401 15.1584911985599 9.0495088014401 15.354000000000001 8.854 C 15.549508801440101 8.658491198559899 15.549508801440101 8.3415088014401 15.354000000000001 8.145999999999999 L 13 5.793 L 13 2.5 C 13 2.2238576250846034 12.776142374915397 2 12.5 2 L 11.5 2 C 11.223857625084603 2 11 2.2238576250846034 11 2.5 L 11 3.793 z"
                      stroke-linecap="round"
                      fill="white"/>
            </g>
            <g transform="matrix(1 0 0 1 0 1.1465)" id="n2BmW55T6f-G2pXHepIzz">
                <path transform=" translate(-8, -9.1465)"
                      d="M 8 3.293 L 14 9.293 L 14 13.5 C 14 14.32842712474619 13.32842712474619 15 12.5 15 L 3.5 15 C 2.6715728752538097 15 2 14.32842712474619 2 13.5 L 2 9.293 z"
                      fill="white"/>
            </g>
        </g>
    </g>
</svg>